%TF.GenerationSoftware,KiCad,Pcbnew,9.0.7*%
%TF.CreationDate,2026-03-09T12:04:13+00:00*%
%TF.ProjectId,kicad ponte H,6b696361-6420-4706-9f6e-746520482e6b,rev?*%
%TF.SameCoordinates,Original*%
%TF.FileFunction,Legend,Top*%
%TF.FilePolarity,Positive*%
%FSLAX46Y46*%
G04 Gerber Fmt 4.6, Leading zero omitted, Abs format (unit mm)*
G04 Created by KiCad (PCBNEW 9.0.7) date 2026-03-09 12:04:13*
%MOMM*%
%LPD*%
G01*
G04 APERTURE LIST*
%ADD10C,0.150000*%
%ADD11C,0.120000*%
G04 APERTURE END LIST*
D10*
X149954819Y-79455594D02*
X148954819Y-79455594D01*
X149954819Y-78884166D02*
X149383390Y-79312737D01*
X148954819Y-78884166D02*
X149526247Y-79455594D01*
X148954819Y-78027023D02*
X148954819Y-78217499D01*
X148954819Y-78217499D02*
X149002438Y-78312737D01*
X149002438Y-78312737D02*
X149050057Y-78360356D01*
X149050057Y-78360356D02*
X149192914Y-78455594D01*
X149192914Y-78455594D02*
X149383390Y-78503213D01*
X149383390Y-78503213D02*
X149764342Y-78503213D01*
X149764342Y-78503213D02*
X149859580Y-78455594D01*
X149859580Y-78455594D02*
X149907200Y-78407975D01*
X149907200Y-78407975D02*
X149954819Y-78312737D01*
X149954819Y-78312737D02*
X149954819Y-78122261D01*
X149954819Y-78122261D02*
X149907200Y-78027023D01*
X149907200Y-78027023D02*
X149859580Y-77979404D01*
X149859580Y-77979404D02*
X149764342Y-77931785D01*
X149764342Y-77931785D02*
X149526247Y-77931785D01*
X149526247Y-77931785D02*
X149431009Y-77979404D01*
X149431009Y-77979404D02*
X149383390Y-78027023D01*
X149383390Y-78027023D02*
X149335771Y-78122261D01*
X149335771Y-78122261D02*
X149335771Y-78312737D01*
X149335771Y-78312737D02*
X149383390Y-78407975D01*
X149383390Y-78407975D02*
X149431009Y-78455594D01*
X149431009Y-78455594D02*
X149526247Y-78503213D01*
X146634761Y-103490057D02*
X146539523Y-103442438D01*
X146539523Y-103442438D02*
X146444285Y-103347200D01*
X146444285Y-103347200D02*
X146301428Y-103204342D01*
X146301428Y-103204342D02*
X146206190Y-103156723D01*
X146206190Y-103156723D02*
X146110952Y-103156723D01*
X146158571Y-103394819D02*
X146063333Y-103347200D01*
X146063333Y-103347200D02*
X145968095Y-103251961D01*
X145968095Y-103251961D02*
X145920476Y-103061485D01*
X145920476Y-103061485D02*
X145920476Y-102728152D01*
X145920476Y-102728152D02*
X145968095Y-102537676D01*
X145968095Y-102537676D02*
X146063333Y-102442438D01*
X146063333Y-102442438D02*
X146158571Y-102394819D01*
X146158571Y-102394819D02*
X146349047Y-102394819D01*
X146349047Y-102394819D02*
X146444285Y-102442438D01*
X146444285Y-102442438D02*
X146539523Y-102537676D01*
X146539523Y-102537676D02*
X146587142Y-102728152D01*
X146587142Y-102728152D02*
X146587142Y-103061485D01*
X146587142Y-103061485D02*
X146539523Y-103251961D01*
X146539523Y-103251961D02*
X146444285Y-103347200D01*
X146444285Y-103347200D02*
X146349047Y-103394819D01*
X146349047Y-103394819D02*
X146158571Y-103394819D01*
X147491904Y-102394819D02*
X147015714Y-102394819D01*
X147015714Y-102394819D02*
X146968095Y-102871009D01*
X146968095Y-102871009D02*
X147015714Y-102823390D01*
X147015714Y-102823390D02*
X147110952Y-102775771D01*
X147110952Y-102775771D02*
X147349047Y-102775771D01*
X147349047Y-102775771D02*
X147444285Y-102823390D01*
X147444285Y-102823390D02*
X147491904Y-102871009D01*
X147491904Y-102871009D02*
X147539523Y-102966247D01*
X147539523Y-102966247D02*
X147539523Y-103204342D01*
X147539523Y-103204342D02*
X147491904Y-103299580D01*
X147491904Y-103299580D02*
X147444285Y-103347200D01*
X147444285Y-103347200D02*
X147349047Y-103394819D01*
X147349047Y-103394819D02*
X147110952Y-103394819D01*
X147110952Y-103394819D02*
X147015714Y-103347200D01*
X147015714Y-103347200D02*
X146968095Y-103299580D01*
X112824819Y-91976666D02*
X112348628Y-92309999D01*
X112824819Y-92548094D02*
X111824819Y-92548094D01*
X111824819Y-92548094D02*
X111824819Y-92167142D01*
X111824819Y-92167142D02*
X111872438Y-92071904D01*
X111872438Y-92071904D02*
X111920057Y-92024285D01*
X111920057Y-92024285D02*
X112015295Y-91976666D01*
X112015295Y-91976666D02*
X112158152Y-91976666D01*
X112158152Y-91976666D02*
X112253390Y-92024285D01*
X112253390Y-92024285D02*
X112301009Y-92071904D01*
X112301009Y-92071904D02*
X112348628Y-92167142D01*
X112348628Y-92167142D02*
X112348628Y-92548094D01*
X111920057Y-91595713D02*
X111872438Y-91548094D01*
X111872438Y-91548094D02*
X111824819Y-91452856D01*
X111824819Y-91452856D02*
X111824819Y-91214761D01*
X111824819Y-91214761D02*
X111872438Y-91119523D01*
X111872438Y-91119523D02*
X111920057Y-91071904D01*
X111920057Y-91071904D02*
X112015295Y-91024285D01*
X112015295Y-91024285D02*
X112110533Y-91024285D01*
X112110533Y-91024285D02*
X112253390Y-91071904D01*
X112253390Y-91071904D02*
X112824819Y-91643332D01*
X112824819Y-91643332D02*
X112824819Y-91024285D01*
X122150476Y-120202319D02*
X122150476Y-120916604D01*
X122150476Y-120916604D02*
X122102857Y-121059461D01*
X122102857Y-121059461D02*
X122007619Y-121154700D01*
X122007619Y-121154700D02*
X121864762Y-121202319D01*
X121864762Y-121202319D02*
X121769524Y-121202319D01*
X123150476Y-121202319D02*
X122579048Y-121202319D01*
X122864762Y-121202319D02*
X122864762Y-120202319D01*
X122864762Y-120202319D02*
X122769524Y-120345176D01*
X122769524Y-120345176D02*
X122674286Y-120440414D01*
X122674286Y-120440414D02*
X122579048Y-120488033D01*
X123769524Y-120202319D02*
X123864762Y-120202319D01*
X123864762Y-120202319D02*
X123960000Y-120249938D01*
X123960000Y-120249938D02*
X124007619Y-120297557D01*
X124007619Y-120297557D02*
X124055238Y-120392795D01*
X124055238Y-120392795D02*
X124102857Y-120583271D01*
X124102857Y-120583271D02*
X124102857Y-120821366D01*
X124102857Y-120821366D02*
X124055238Y-121011842D01*
X124055238Y-121011842D02*
X124007619Y-121107080D01*
X124007619Y-121107080D02*
X123960000Y-121154700D01*
X123960000Y-121154700D02*
X123864762Y-121202319D01*
X123864762Y-121202319D02*
X123769524Y-121202319D01*
X123769524Y-121202319D02*
X123674286Y-121154700D01*
X123674286Y-121154700D02*
X123626667Y-121107080D01*
X123626667Y-121107080D02*
X123579048Y-121011842D01*
X123579048Y-121011842D02*
X123531429Y-120821366D01*
X123531429Y-120821366D02*
X123531429Y-120583271D01*
X123531429Y-120583271D02*
X123579048Y-120392795D01*
X123579048Y-120392795D02*
X123626667Y-120297557D01*
X123626667Y-120297557D02*
X123674286Y-120249938D01*
X123674286Y-120249938D02*
X123769524Y-120202319D01*
X147661666Y-120202319D02*
X147661666Y-120916604D01*
X147661666Y-120916604D02*
X147614047Y-121059461D01*
X147614047Y-121059461D02*
X147518809Y-121154700D01*
X147518809Y-121154700D02*
X147375952Y-121202319D01*
X147375952Y-121202319D02*
X147280714Y-121202319D01*
X148185476Y-121202319D02*
X148375952Y-121202319D01*
X148375952Y-121202319D02*
X148471190Y-121154700D01*
X148471190Y-121154700D02*
X148518809Y-121107080D01*
X148518809Y-121107080D02*
X148614047Y-120964223D01*
X148614047Y-120964223D02*
X148661666Y-120773747D01*
X148661666Y-120773747D02*
X148661666Y-120392795D01*
X148661666Y-120392795D02*
X148614047Y-120297557D01*
X148614047Y-120297557D02*
X148566428Y-120249938D01*
X148566428Y-120249938D02*
X148471190Y-120202319D01*
X148471190Y-120202319D02*
X148280714Y-120202319D01*
X148280714Y-120202319D02*
X148185476Y-120249938D01*
X148185476Y-120249938D02*
X148137857Y-120297557D01*
X148137857Y-120297557D02*
X148090238Y-120392795D01*
X148090238Y-120392795D02*
X148090238Y-120630890D01*
X148090238Y-120630890D02*
X148137857Y-120726128D01*
X148137857Y-120726128D02*
X148185476Y-120773747D01*
X148185476Y-120773747D02*
X148280714Y-120821366D01*
X148280714Y-120821366D02*
X148471190Y-120821366D01*
X148471190Y-120821366D02*
X148566428Y-120773747D01*
X148566428Y-120773747D02*
X148614047Y-120726128D01*
X148614047Y-120726128D02*
X148661666Y-120630890D01*
X112824819Y-77572857D02*
X112348628Y-77906190D01*
X112824819Y-78144285D02*
X111824819Y-78144285D01*
X111824819Y-78144285D02*
X111824819Y-77763333D01*
X111824819Y-77763333D02*
X111872438Y-77668095D01*
X111872438Y-77668095D02*
X111920057Y-77620476D01*
X111920057Y-77620476D02*
X112015295Y-77572857D01*
X112015295Y-77572857D02*
X112158152Y-77572857D01*
X112158152Y-77572857D02*
X112253390Y-77620476D01*
X112253390Y-77620476D02*
X112301009Y-77668095D01*
X112301009Y-77668095D02*
X112348628Y-77763333D01*
X112348628Y-77763333D02*
X112348628Y-78144285D01*
X112824819Y-76620476D02*
X112824819Y-77191904D01*
X112824819Y-76906190D02*
X111824819Y-76906190D01*
X111824819Y-76906190D02*
X111967676Y-77001428D01*
X111967676Y-77001428D02*
X112062914Y-77096666D01*
X112062914Y-77096666D02*
X112110533Y-77191904D01*
X111824819Y-76001428D02*
X111824819Y-75906190D01*
X111824819Y-75906190D02*
X111872438Y-75810952D01*
X111872438Y-75810952D02*
X111920057Y-75763333D01*
X111920057Y-75763333D02*
X112015295Y-75715714D01*
X112015295Y-75715714D02*
X112205771Y-75668095D01*
X112205771Y-75668095D02*
X112443866Y-75668095D01*
X112443866Y-75668095D02*
X112634342Y-75715714D01*
X112634342Y-75715714D02*
X112729580Y-75763333D01*
X112729580Y-75763333D02*
X112777200Y-75810952D01*
X112777200Y-75810952D02*
X112824819Y-75906190D01*
X112824819Y-75906190D02*
X112824819Y-76001428D01*
X112824819Y-76001428D02*
X112777200Y-76096666D01*
X112777200Y-76096666D02*
X112729580Y-76144285D01*
X112729580Y-76144285D02*
X112634342Y-76191904D01*
X112634342Y-76191904D02*
X112443866Y-76239523D01*
X112443866Y-76239523D02*
X112205771Y-76239523D01*
X112205771Y-76239523D02*
X112015295Y-76191904D01*
X112015295Y-76191904D02*
X111920057Y-76144285D01*
X111920057Y-76144285D02*
X111872438Y-76096666D01*
X111872438Y-76096666D02*
X111824819Y-76001428D01*
X126761905Y-96914819D02*
X126761905Y-95914819D01*
X126761905Y-95914819D02*
X127000000Y-95914819D01*
X127000000Y-95914819D02*
X127142857Y-95962438D01*
X127142857Y-95962438D02*
X127238095Y-96057676D01*
X127238095Y-96057676D02*
X127285714Y-96152914D01*
X127285714Y-96152914D02*
X127333333Y-96343390D01*
X127333333Y-96343390D02*
X127333333Y-96486247D01*
X127333333Y-96486247D02*
X127285714Y-96676723D01*
X127285714Y-96676723D02*
X127238095Y-96771961D01*
X127238095Y-96771961D02*
X127142857Y-96867200D01*
X127142857Y-96867200D02*
X127000000Y-96914819D01*
X127000000Y-96914819D02*
X126761905Y-96914819D01*
X127809524Y-96914819D02*
X128000000Y-96914819D01*
X128000000Y-96914819D02*
X128095238Y-96867200D01*
X128095238Y-96867200D02*
X128142857Y-96819580D01*
X128142857Y-96819580D02*
X128238095Y-96676723D01*
X128238095Y-96676723D02*
X128285714Y-96486247D01*
X128285714Y-96486247D02*
X128285714Y-96105295D01*
X128285714Y-96105295D02*
X128238095Y-96010057D01*
X128238095Y-96010057D02*
X128190476Y-95962438D01*
X128190476Y-95962438D02*
X128095238Y-95914819D01*
X128095238Y-95914819D02*
X127904762Y-95914819D01*
X127904762Y-95914819D02*
X127809524Y-95962438D01*
X127809524Y-95962438D02*
X127761905Y-96010057D01*
X127761905Y-96010057D02*
X127714286Y-96105295D01*
X127714286Y-96105295D02*
X127714286Y-96343390D01*
X127714286Y-96343390D02*
X127761905Y-96438628D01*
X127761905Y-96438628D02*
X127809524Y-96486247D01*
X127809524Y-96486247D02*
X127904762Y-96533866D01*
X127904762Y-96533866D02*
X128095238Y-96533866D01*
X128095238Y-96533866D02*
X128190476Y-96486247D01*
X128190476Y-96486247D02*
X128238095Y-96438628D01*
X128238095Y-96438628D02*
X128285714Y-96343390D01*
X125690476Y-41337319D02*
X125690476Y-40337319D01*
X125690476Y-40337319D02*
X126023809Y-41051604D01*
X126023809Y-41051604D02*
X126357142Y-40337319D01*
X126357142Y-40337319D02*
X126357142Y-41337319D01*
X126785714Y-40432557D02*
X126833333Y-40384938D01*
X126833333Y-40384938D02*
X126928571Y-40337319D01*
X126928571Y-40337319D02*
X127166666Y-40337319D01*
X127166666Y-40337319D02*
X127261904Y-40384938D01*
X127261904Y-40384938D02*
X127309523Y-40432557D01*
X127309523Y-40432557D02*
X127357142Y-40527795D01*
X127357142Y-40527795D02*
X127357142Y-40623033D01*
X127357142Y-40623033D02*
X127309523Y-40765890D01*
X127309523Y-40765890D02*
X126738095Y-41337319D01*
X126738095Y-41337319D02*
X127357142Y-41337319D01*
X133261905Y-106754819D02*
X133261905Y-105754819D01*
X133261905Y-105754819D02*
X133500000Y-105754819D01*
X133500000Y-105754819D02*
X133642857Y-105802438D01*
X133642857Y-105802438D02*
X133738095Y-105897676D01*
X133738095Y-105897676D02*
X133785714Y-105992914D01*
X133785714Y-105992914D02*
X133833333Y-106183390D01*
X133833333Y-106183390D02*
X133833333Y-106326247D01*
X133833333Y-106326247D02*
X133785714Y-106516723D01*
X133785714Y-106516723D02*
X133738095Y-106611961D01*
X133738095Y-106611961D02*
X133642857Y-106707200D01*
X133642857Y-106707200D02*
X133500000Y-106754819D01*
X133500000Y-106754819D02*
X133261905Y-106754819D01*
X134214286Y-105850057D02*
X134261905Y-105802438D01*
X134261905Y-105802438D02*
X134357143Y-105754819D01*
X134357143Y-105754819D02*
X134595238Y-105754819D01*
X134595238Y-105754819D02*
X134690476Y-105802438D01*
X134690476Y-105802438D02*
X134738095Y-105850057D01*
X134738095Y-105850057D02*
X134785714Y-105945295D01*
X134785714Y-105945295D02*
X134785714Y-106040533D01*
X134785714Y-106040533D02*
X134738095Y-106183390D01*
X134738095Y-106183390D02*
X134166667Y-106754819D01*
X134166667Y-106754819D02*
X134785714Y-106754819D01*
X112824819Y-60976666D02*
X112348628Y-61309999D01*
X112824819Y-61548094D02*
X111824819Y-61548094D01*
X111824819Y-61548094D02*
X111824819Y-61167142D01*
X111824819Y-61167142D02*
X111872438Y-61071904D01*
X111872438Y-61071904D02*
X111920057Y-61024285D01*
X111920057Y-61024285D02*
X112015295Y-60976666D01*
X112015295Y-60976666D02*
X112158152Y-60976666D01*
X112158152Y-60976666D02*
X112253390Y-61024285D01*
X112253390Y-61024285D02*
X112301009Y-61071904D01*
X112301009Y-61071904D02*
X112348628Y-61167142D01*
X112348628Y-61167142D02*
X112348628Y-61548094D01*
X112824819Y-60500475D02*
X112824819Y-60309999D01*
X112824819Y-60309999D02*
X112777200Y-60214761D01*
X112777200Y-60214761D02*
X112729580Y-60167142D01*
X112729580Y-60167142D02*
X112586723Y-60071904D01*
X112586723Y-60071904D02*
X112396247Y-60024285D01*
X112396247Y-60024285D02*
X112015295Y-60024285D01*
X112015295Y-60024285D02*
X111920057Y-60071904D01*
X111920057Y-60071904D02*
X111872438Y-60119523D01*
X111872438Y-60119523D02*
X111824819Y-60214761D01*
X111824819Y-60214761D02*
X111824819Y-60405237D01*
X111824819Y-60405237D02*
X111872438Y-60500475D01*
X111872438Y-60500475D02*
X111920057Y-60548094D01*
X111920057Y-60548094D02*
X112015295Y-60595713D01*
X112015295Y-60595713D02*
X112253390Y-60595713D01*
X112253390Y-60595713D02*
X112348628Y-60548094D01*
X112348628Y-60548094D02*
X112396247Y-60500475D01*
X112396247Y-60500475D02*
X112443866Y-60405237D01*
X112443866Y-60405237D02*
X112443866Y-60214761D01*
X112443866Y-60214761D02*
X112396247Y-60119523D01*
X112396247Y-60119523D02*
X112348628Y-60071904D01*
X112348628Y-60071904D02*
X112253390Y-60024285D01*
X152184819Y-72333333D02*
X152899104Y-72333333D01*
X152899104Y-72333333D02*
X153041961Y-72380952D01*
X153041961Y-72380952D02*
X153137200Y-72476190D01*
X153137200Y-72476190D02*
X153184819Y-72619047D01*
X153184819Y-72619047D02*
X153184819Y-72714285D01*
X153184819Y-71333333D02*
X153184819Y-71904761D01*
X153184819Y-71619047D02*
X152184819Y-71619047D01*
X152184819Y-71619047D02*
X152327676Y-71714285D01*
X152327676Y-71714285D02*
X152422914Y-71809523D01*
X152422914Y-71809523D02*
X152470533Y-71904761D01*
X112824819Y-107976666D02*
X112348628Y-108309999D01*
X112824819Y-108548094D02*
X111824819Y-108548094D01*
X111824819Y-108548094D02*
X111824819Y-108167142D01*
X111824819Y-108167142D02*
X111872438Y-108071904D01*
X111872438Y-108071904D02*
X111920057Y-108024285D01*
X111920057Y-108024285D02*
X112015295Y-107976666D01*
X112015295Y-107976666D02*
X112158152Y-107976666D01*
X112158152Y-107976666D02*
X112253390Y-108024285D01*
X112253390Y-108024285D02*
X112301009Y-108071904D01*
X112301009Y-108071904D02*
X112348628Y-108167142D01*
X112348628Y-108167142D02*
X112348628Y-108548094D01*
X112824819Y-107024285D02*
X112824819Y-107595713D01*
X112824819Y-107309999D02*
X111824819Y-107309999D01*
X111824819Y-107309999D02*
X111967676Y-107405237D01*
X111967676Y-107405237D02*
X112062914Y-107500475D01*
X112062914Y-107500475D02*
X112110533Y-107595713D01*
X138991905Y-96914819D02*
X138991905Y-95914819D01*
X138991905Y-95914819D02*
X139230000Y-95914819D01*
X139230000Y-95914819D02*
X139372857Y-95962438D01*
X139372857Y-95962438D02*
X139468095Y-96057676D01*
X139468095Y-96057676D02*
X139515714Y-96152914D01*
X139515714Y-96152914D02*
X139563333Y-96343390D01*
X139563333Y-96343390D02*
X139563333Y-96486247D01*
X139563333Y-96486247D02*
X139515714Y-96676723D01*
X139515714Y-96676723D02*
X139468095Y-96771961D01*
X139468095Y-96771961D02*
X139372857Y-96867200D01*
X139372857Y-96867200D02*
X139230000Y-96914819D01*
X139230000Y-96914819D02*
X138991905Y-96914819D01*
X140515714Y-96914819D02*
X139944286Y-96914819D01*
X140230000Y-96914819D02*
X140230000Y-95914819D01*
X140230000Y-95914819D02*
X140134762Y-96057676D01*
X140134762Y-96057676D02*
X140039524Y-96152914D01*
X140039524Y-96152914D02*
X139944286Y-96200533D01*
X132785714Y-98154819D02*
X132785714Y-97154819D01*
X132785714Y-97154819D02*
X133023809Y-97154819D01*
X133023809Y-97154819D02*
X133166666Y-97202438D01*
X133166666Y-97202438D02*
X133261904Y-97297676D01*
X133261904Y-97297676D02*
X133309523Y-97392914D01*
X133309523Y-97392914D02*
X133357142Y-97583390D01*
X133357142Y-97583390D02*
X133357142Y-97726247D01*
X133357142Y-97726247D02*
X133309523Y-97916723D01*
X133309523Y-97916723D02*
X133261904Y-98011961D01*
X133261904Y-98011961D02*
X133166666Y-98107200D01*
X133166666Y-98107200D02*
X133023809Y-98154819D01*
X133023809Y-98154819D02*
X132785714Y-98154819D01*
X134309523Y-98154819D02*
X133738095Y-98154819D01*
X134023809Y-98154819D02*
X134023809Y-97154819D01*
X134023809Y-97154819D02*
X133928571Y-97297676D01*
X133928571Y-97297676D02*
X133833333Y-97392914D01*
X133833333Y-97392914D02*
X133738095Y-97440533D01*
X134928571Y-97154819D02*
X135023809Y-97154819D01*
X135023809Y-97154819D02*
X135119047Y-97202438D01*
X135119047Y-97202438D02*
X135166666Y-97250057D01*
X135166666Y-97250057D02*
X135214285Y-97345295D01*
X135214285Y-97345295D02*
X135261904Y-97535771D01*
X135261904Y-97535771D02*
X135261904Y-97773866D01*
X135261904Y-97773866D02*
X135214285Y-97964342D01*
X135214285Y-97964342D02*
X135166666Y-98059580D01*
X135166666Y-98059580D02*
X135119047Y-98107200D01*
X135119047Y-98107200D02*
X135023809Y-98154819D01*
X135023809Y-98154819D02*
X134928571Y-98154819D01*
X134928571Y-98154819D02*
X134833333Y-98107200D01*
X134833333Y-98107200D02*
X134785714Y-98059580D01*
X134785714Y-98059580D02*
X134738095Y-97964342D01*
X134738095Y-97964342D02*
X134690476Y-97773866D01*
X134690476Y-97773866D02*
X134690476Y-97535771D01*
X134690476Y-97535771D02*
X134738095Y-97345295D01*
X134738095Y-97345295D02*
X134785714Y-97250057D01*
X134785714Y-97250057D02*
X134833333Y-97202438D01*
X134833333Y-97202438D02*
X134928571Y-97154819D01*
X121904761Y-103260057D02*
X121809523Y-103212438D01*
X121809523Y-103212438D02*
X121714285Y-103117200D01*
X121714285Y-103117200D02*
X121571428Y-102974342D01*
X121571428Y-102974342D02*
X121476190Y-102926723D01*
X121476190Y-102926723D02*
X121380952Y-102926723D01*
X121428571Y-103164819D02*
X121333333Y-103117200D01*
X121333333Y-103117200D02*
X121238095Y-103021961D01*
X121238095Y-103021961D02*
X121190476Y-102831485D01*
X121190476Y-102831485D02*
X121190476Y-102498152D01*
X121190476Y-102498152D02*
X121238095Y-102307676D01*
X121238095Y-102307676D02*
X121333333Y-102212438D01*
X121333333Y-102212438D02*
X121428571Y-102164819D01*
X121428571Y-102164819D02*
X121619047Y-102164819D01*
X121619047Y-102164819D02*
X121714285Y-102212438D01*
X121714285Y-102212438D02*
X121809523Y-102307676D01*
X121809523Y-102307676D02*
X121857142Y-102498152D01*
X121857142Y-102498152D02*
X121857142Y-102831485D01*
X121857142Y-102831485D02*
X121809523Y-103021961D01*
X121809523Y-103021961D02*
X121714285Y-103117200D01*
X121714285Y-103117200D02*
X121619047Y-103164819D01*
X121619047Y-103164819D02*
X121428571Y-103164819D01*
X122809523Y-103164819D02*
X122238095Y-103164819D01*
X122523809Y-103164819D02*
X122523809Y-102164819D01*
X122523809Y-102164819D02*
X122428571Y-102307676D01*
X122428571Y-102307676D02*
X122333333Y-102402914D01*
X122333333Y-102402914D02*
X122238095Y-102450533D01*
X150454819Y-61955594D02*
X149454819Y-61955594D01*
X150454819Y-61384166D02*
X149883390Y-61812737D01*
X149454819Y-61384166D02*
X150026247Y-61955594D01*
X150454819Y-60431785D02*
X150454819Y-61003213D01*
X150454819Y-60717499D02*
X149454819Y-60717499D01*
X149454819Y-60717499D02*
X149597676Y-60812737D01*
X149597676Y-60812737D02*
X149692914Y-60907975D01*
X149692914Y-60907975D02*
X149740533Y-61003213D01*
X152184819Y-91333333D02*
X152899104Y-91333333D01*
X152899104Y-91333333D02*
X153041961Y-91380952D01*
X153041961Y-91380952D02*
X153137200Y-91476190D01*
X153137200Y-91476190D02*
X153184819Y-91619047D01*
X153184819Y-91619047D02*
X153184819Y-91714285D01*
X152613390Y-90714285D02*
X152565771Y-90809523D01*
X152565771Y-90809523D02*
X152518152Y-90857142D01*
X152518152Y-90857142D02*
X152422914Y-90904761D01*
X152422914Y-90904761D02*
X152375295Y-90904761D01*
X152375295Y-90904761D02*
X152280057Y-90857142D01*
X152280057Y-90857142D02*
X152232438Y-90809523D01*
X152232438Y-90809523D02*
X152184819Y-90714285D01*
X152184819Y-90714285D02*
X152184819Y-90523809D01*
X152184819Y-90523809D02*
X152232438Y-90428571D01*
X152232438Y-90428571D02*
X152280057Y-90380952D01*
X152280057Y-90380952D02*
X152375295Y-90333333D01*
X152375295Y-90333333D02*
X152422914Y-90333333D01*
X152422914Y-90333333D02*
X152518152Y-90380952D01*
X152518152Y-90380952D02*
X152565771Y-90428571D01*
X152565771Y-90428571D02*
X152613390Y-90523809D01*
X152613390Y-90523809D02*
X152613390Y-90714285D01*
X152613390Y-90714285D02*
X152661009Y-90809523D01*
X152661009Y-90809523D02*
X152708628Y-90857142D01*
X152708628Y-90857142D02*
X152803866Y-90904761D01*
X152803866Y-90904761D02*
X152994342Y-90904761D01*
X152994342Y-90904761D02*
X153089580Y-90857142D01*
X153089580Y-90857142D02*
X153137200Y-90809523D01*
X153137200Y-90809523D02*
X153184819Y-90714285D01*
X153184819Y-90714285D02*
X153184819Y-90523809D01*
X153184819Y-90523809D02*
X153137200Y-90428571D01*
X153137200Y-90428571D02*
X153089580Y-90380952D01*
X153089580Y-90380952D02*
X152994342Y-90333333D01*
X152994342Y-90333333D02*
X152803866Y-90333333D01*
X152803866Y-90333333D02*
X152708628Y-90380952D01*
X152708628Y-90380952D02*
X152661009Y-90428571D01*
X152661009Y-90428571D02*
X152613390Y-90523809D01*
D11*
%TO.C,K6*%
X119370000Y-72637500D02*
X148630000Y-72637500D01*
X119370000Y-85697500D02*
X119370000Y-72637500D01*
X147600000Y-72217500D02*
X145100000Y-72217500D01*
X148630000Y-72637500D02*
X148630000Y-85697500D01*
X148630000Y-85697500D02*
X119370000Y-85697500D01*
%TO.C,Q5*%
X144930000Y-108350000D02*
X148530000Y-108350000D01*
X144891522Y-108338478D02*
G75*
G02*
X146730000Y-103899999I1838478J1838478D01*
G01*
X146730000Y-103900000D02*
G75*
G02*
X148568478Y-108338478I0J-2600000D01*
G01*
%TO.C,R2*%
X108630000Y-88540000D02*
X108630000Y-95080000D01*
X108630000Y-95080000D02*
X108960000Y-95080000D01*
X108960000Y-88540000D02*
X108630000Y-88540000D01*
X111040000Y-88540000D02*
X111370000Y-88540000D01*
X111370000Y-88540000D02*
X111370000Y-95080000D01*
X111370000Y-95080000D02*
X111040000Y-95080000D01*
%TO.C,J10*%
X117760000Y-121747500D02*
X128160000Y-121747500D01*
X117760000Y-123867500D02*
X128160000Y-123867500D01*
X117760000Y-127867500D02*
X128160000Y-127867500D01*
X117760000Y-129987500D02*
X117760000Y-121747500D01*
X120120000Y-129987500D02*
X117760000Y-129987500D01*
X128160000Y-121747500D02*
X128160000Y-129987500D01*
X128160000Y-129987500D02*
X120720000Y-129987500D01*
X120860000Y-130597500D02*
X119980000Y-130597500D01*
X120420000Y-129987500D01*
X120860000Y-130597500D01*
G36*
X120860000Y-130597500D02*
G01*
X119980000Y-130597500D01*
X120420000Y-129987500D01*
X120860000Y-130597500D01*
G37*
%TO.C,J9*%
X142795000Y-121747500D02*
X153195000Y-121747500D01*
X142795000Y-123867500D02*
X153195000Y-123867500D01*
X142795000Y-127867500D02*
X153195000Y-127867500D01*
X142795000Y-129987500D02*
X142795000Y-121747500D01*
X145155000Y-129987500D02*
X142795000Y-129987500D01*
X153195000Y-121747500D02*
X153195000Y-129987500D01*
X153195000Y-129987500D02*
X145755000Y-129987500D01*
X145895000Y-130597500D02*
X145015000Y-130597500D01*
X145455000Y-129987500D01*
X145895000Y-130597500D01*
G36*
X145895000Y-130597500D02*
G01*
X145015000Y-130597500D01*
X145455000Y-129987500D01*
X145895000Y-130597500D01*
G37*
%TO.C,R10*%
X108630000Y-73660000D02*
X108630000Y-80200000D01*
X108630000Y-80200000D02*
X108960000Y-80200000D01*
X108960000Y-73660000D02*
X108630000Y-73660000D01*
X111040000Y-73660000D02*
X111370000Y-73660000D01*
X111370000Y-73660000D02*
X111370000Y-80200000D01*
X111370000Y-80200000D02*
X111040000Y-80200000D01*
%TO.C,D9*%
X129060000Y-92420000D02*
X129060000Y-92264000D01*
X129060000Y-94736000D02*
X129060000Y-94580000D01*
X125828563Y-92420000D02*
G75*
G02*
X129060000Y-92264484I1671437J-1080000D01*
G01*
X126459039Y-92420000D02*
G75*
G02*
X128540961Y-92420000I1040961J-1080000D01*
G01*
X128540961Y-94580000D02*
G75*
G02*
X126459039Y-94580000I-1040961J1080000D01*
G01*
X129060000Y-94735516D02*
G75*
G02*
X125828563Y-94580000I-1560000J1235516D01*
G01*
%TO.C,M2*%
X128380000Y-37880000D02*
X138620000Y-37880000D01*
X128380000Y-41500000D02*
X138620000Y-41500000D01*
X128380000Y-42500000D02*
X138620000Y-42500000D01*
X128380000Y-46500000D02*
X138620000Y-46500000D01*
X128380000Y-48620000D02*
X128380000Y-37880000D01*
X130700000Y-48620000D02*
X128380000Y-48620000D01*
X138620000Y-37880000D02*
X138620000Y-48620000D01*
X138620000Y-48620000D02*
X131300000Y-48620000D01*
X131440000Y-49230000D02*
X130560000Y-49230000D01*
X131000000Y-48620000D01*
X131440000Y-49230000D01*
G36*
X131440000Y-49230000D02*
G01*
X130560000Y-49230000D01*
X131000000Y-48620000D01*
X131440000Y-49230000D01*
G37*
%TO.C,D2*%
X133300000Y-104400000D02*
X135260000Y-104400000D01*
X133300000Y-105600000D02*
X135260000Y-105600000D01*
X135260000Y-105600000D02*
X135260000Y-104400000D01*
%TO.C,R9*%
X108630000Y-57540000D02*
X108630000Y-64080000D01*
X108630000Y-64080000D02*
X108960000Y-64080000D01*
X108960000Y-57540000D02*
X108630000Y-57540000D01*
X111040000Y-57540000D02*
X111370000Y-57540000D01*
X111370000Y-57540000D02*
X111370000Y-64080000D01*
X111370000Y-64080000D02*
X111040000Y-64080000D01*
%TO.C,J1*%
X153730000Y-67380000D02*
X161270000Y-67380000D01*
X153730000Y-76620000D02*
X153730000Y-67380000D01*
X161270000Y-67380000D02*
X161270000Y-76620000D01*
X161270000Y-76620000D02*
X153730000Y-76620000D01*
%TO.C,R1*%
X108630000Y-104540000D02*
X108630000Y-111080000D01*
X108630000Y-111080000D02*
X108960000Y-111080000D01*
X108960000Y-104540000D02*
X108630000Y-104540000D01*
X111040000Y-104540000D02*
X111370000Y-104540000D01*
X111370000Y-104540000D02*
X111370000Y-111080000D01*
X111370000Y-111080000D02*
X111040000Y-111080000D01*
%TO.C,D1*%
X141290000Y-92420000D02*
X141290000Y-92264000D01*
X141290000Y-94736000D02*
X141290000Y-94580000D01*
X138058563Y-92420000D02*
G75*
G02*
X141290000Y-92264484I1671437J-1080000D01*
G01*
X138689039Y-92420000D02*
G75*
G02*
X140770961Y-92420000I1040961J-1080000D01*
G01*
X140770961Y-94580000D02*
G75*
G02*
X138689039Y-94580000I-1040961J1080000D01*
G01*
X141290000Y-94735516D02*
G75*
G02*
X138058563Y-94580000I-1560000J1235516D01*
G01*
%TO.C,D10*%
X132740000Y-98400000D02*
X132740000Y-99600000D01*
X134700000Y-98400000D02*
X132740000Y-98400000D01*
X134700000Y-99600000D02*
X132740000Y-99600000D01*
%TO.C,Q1*%
X120200000Y-108120000D02*
X123800000Y-108120000D01*
X120161522Y-108108478D02*
G75*
G02*
X122000000Y-103669999I1838478J1838478D01*
G01*
X122000000Y-103670000D02*
G75*
G02*
X123838478Y-108108478I0J-2600000D01*
G01*
%TO.C,K1*%
X119870000Y-54137500D02*
X149130000Y-54137500D01*
X119870000Y-67197500D02*
X119870000Y-54137500D01*
X148100000Y-53717500D02*
X145600000Y-53717500D01*
X149130000Y-54137500D02*
X149130000Y-67197500D01*
X149130000Y-67197500D02*
X119870000Y-67197500D01*
%TO.C,J8*%
X153730000Y-86380000D02*
X161270000Y-86380000D01*
X153730000Y-95620000D02*
X153730000Y-86380000D01*
X161270000Y-86380000D02*
X161270000Y-95620000D01*
X161270000Y-95620000D02*
X153730000Y-95620000D01*
%TD*%
M02*
