%TF.GenerationSoftware,KiCad,Pcbnew,9.0.7*%
%TF.CreationDate,2026-03-09T12:04:13+00:00*%
%TF.ProjectId,kicad ponte H,6b696361-6420-4706-9f6e-746520482e6b,rev?*%
%TF.SameCoordinates,Original*%
%TF.FileFunction,Copper,L1,Top*%
%TF.FilePolarity,Positive*%
%FSLAX46Y46*%
G04 Gerber Fmt 4.6, Leading zero omitted, Abs format (unit mm)*
G04 Created by KiCad (PCBNEW 9.0.7) date 2026-03-09 12:04:13*
%MOMM*%
%LPD*%
G01*
G04 APERTURE LIST*
G04 Aperture macros list*
%AMRoundRect*
0 Rectangle with rounded corners*
0 $1 Rounding radius*
0 $2 $3 $4 $5 $6 $7 $8 $9 X,Y pos of 4 corners*
0 Add a 4 corners polygon primitive as box body*
4,1,4,$2,$3,$4,$5,$6,$7,$8,$9,$2,$3,0*
0 Add four circle primitives for the rounded corners*
1,1,$1+$1,$2,$3*
1,1,$1+$1,$4,$5*
1,1,$1+$1,$6,$7*
1,1,$1+$1,$8,$9*
0 Add four rect primitives between the rounded corners*
20,1,$1+$1,$2,$3,$4,$5,0*
20,1,$1+$1,$4,$5,$6,$7,0*
20,1,$1+$1,$6,$7,$8,$9,0*
20,1,$1+$1,$8,$9,$2,$3,0*%
G04 Aperture macros list end*
%TA.AperFunction,ComponentPad*%
%ADD10R,2.500000X2.500000*%
%TD*%
%TA.AperFunction,ComponentPad*%
%ADD11C,2.500000*%
%TD*%
%TA.AperFunction,ComponentPad*%
%ADD12R,1.300000X1.300000*%
%TD*%
%TA.AperFunction,ComponentPad*%
%ADD13C,1.300000*%
%TD*%
%TA.AperFunction,ComponentPad*%
%ADD14C,1.600000*%
%TD*%
%TA.AperFunction,ComponentPad*%
%ADD15RoundRect,0.250000X-1.000000X-1.000000X1.000000X-1.000000X1.000000X1.000000X-1.000000X1.000000X0*%
%TD*%
%TA.AperFunction,ComponentPad*%
%ADD16R,1.800000X1.800000*%
%TD*%
%TA.AperFunction,ComponentPad*%
%ADD17C,1.800000*%
%TD*%
%TA.AperFunction,ComponentPad*%
%ADD18RoundRect,0.250001X-1.149999X-1.149999X1.149999X-1.149999X1.149999X1.149999X-1.149999X1.149999X0*%
%TD*%
%TA.AperFunction,ComponentPad*%
%ADD19C,2.800000*%
%TD*%
%TA.AperFunction,SMDPad,CuDef*%
%ADD20RoundRect,0.150000X-0.150000X-0.200000X0.150000X-0.200000X0.150000X0.200000X-0.150000X0.200000X0*%
%TD*%
%TA.AperFunction,ComponentPad*%
%ADD21C,3.000000*%
%TD*%
%TA.AperFunction,SMDPad,CuDef*%
%ADD22RoundRect,0.150000X0.150000X0.200000X-0.150000X0.200000X-0.150000X-0.200000X0.150000X-0.200000X0*%
%TD*%
%TA.AperFunction,ViaPad*%
%ADD23C,2.500000*%
%TD*%
%TA.AperFunction,ViaPad*%
%ADD24C,0.600000*%
%TD*%
%TA.AperFunction,Conductor*%
%ADD25C,2.000000*%
%TD*%
%TA.AperFunction,Conductor*%
%ADD26C,0.601000*%
%TD*%
%TA.AperFunction,Conductor*%
%ADD27C,1.299800*%
%TD*%
G04 APERTURE END LIST*
D10*
%TO.P,K6,1*%
%TO.N,Net-(M2--)*%
X146400000Y-75417500D03*
D11*
%TO.P,K6,2*%
%TO.N,Net-(J9-Pin_2)*%
X141400000Y-75417500D03*
%TO.P,K6,4*%
%TO.N,Net-(D1-K)*%
X121400000Y-75417500D03*
%TO.P,K6,5*%
%TO.N,Net-(D2-A)*%
X121400000Y-82917500D03*
%TO.P,K6,7*%
%TO.N,Net-(J9-Pin_1)*%
X141400000Y-82917500D03*
%TO.P,K6,8*%
%TO.N,Net-(M2-+)*%
X146400000Y-82917500D03*
%TD*%
D12*
%TO.P,Q5,1,C*%
%TO.N,Net-(D10-A)*%
X145460000Y-106500000D03*
D13*
%TO.P,Q5,2,B*%
%TO.N,Net-(Q5-B)*%
X146730000Y-105230000D03*
%TO.P,Q5,3,E*%
%TO.N,Net-(J10-Pin_1)*%
X148000000Y-106500000D03*
%TD*%
D14*
%TO.P,R2,1*%
%TO.N,Net-(Q1-B)*%
X110000000Y-88000000D03*
%TO.P,R2,2*%
%TO.N,Net-(J1-Pin_1)*%
X110000000Y-95620000D03*
%TD*%
D15*
%TO.P,J10,1,Pin_1*%
%TO.N,Net-(J10-Pin_1)*%
X120420000Y-125867500D03*
D11*
%TO.P,J10,2,Pin_2*%
%TO.N,Net-(D1-K)*%
X125500000Y-125867500D03*
%TD*%
D15*
%TO.P,J9,1,Pin_1*%
%TO.N,Net-(J9-Pin_1)*%
X145455000Y-125867500D03*
D11*
%TO.P,J9,2,Pin_2*%
%TO.N,Net-(J9-Pin_2)*%
X150535000Y-125867500D03*
%TD*%
D14*
%TO.P,R10,1*%
%TO.N,Net-(D9-A)*%
X110000000Y-73120000D03*
%TO.P,R10,2*%
%TO.N,Net-(D10-A)*%
X110000000Y-80740000D03*
%TD*%
D16*
%TO.P,D9,1,K*%
%TO.N,Net-(D1-K)*%
X128770000Y-93500000D03*
D17*
%TO.P,D9,2,A*%
%TO.N,Net-(D9-A)*%
X126230000Y-93500000D03*
%TD*%
D18*
%TO.P,M2,1,+*%
%TO.N,Net-(M2-+)*%
X131000000Y-44500000D03*
D19*
%TO.P,M2,2,-*%
%TO.N,Net-(M2--)*%
X136000000Y-44500000D03*
%TD*%
D20*
%TO.P,D2,1,K*%
%TO.N,Net-(D1-K)*%
X134700000Y-105000000D03*
%TO.P,D2,2,A*%
%TO.N,Net-(D2-A)*%
X133300000Y-105000000D03*
%TD*%
D14*
%TO.P,R9,1*%
%TO.N,Net-(Q5-B)*%
X110000000Y-57000000D03*
%TO.P,R9,2*%
%TO.N,Net-(J8-Pin_1)*%
X110000000Y-64620000D03*
%TD*%
D21*
%TO.P,J1,1,Pin_1*%
%TO.N,Net-(J1-Pin_1)*%
X157500000Y-72000000D03*
%TD*%
D14*
%TO.P,R1,1*%
%TO.N,Net-(D1-A)*%
X110000000Y-104000000D03*
%TO.P,R1,2*%
%TO.N,Net-(D2-A)*%
X110000000Y-111620000D03*
%TD*%
D16*
%TO.P,D1,1,K*%
%TO.N,Net-(D1-K)*%
X141000000Y-93500000D03*
D17*
%TO.P,D1,2,A*%
%TO.N,Net-(D1-A)*%
X138460000Y-93500000D03*
%TD*%
D22*
%TO.P,D10,1,K*%
%TO.N,Net-(D1-K)*%
X133300000Y-99000000D03*
%TO.P,D10,2,A*%
%TO.N,Net-(D10-A)*%
X134700000Y-99000000D03*
%TD*%
D12*
%TO.P,Q1,1,C*%
%TO.N,Net-(D2-A)*%
X120730000Y-106270000D03*
D13*
%TO.P,Q1,2,B*%
%TO.N,Net-(Q1-B)*%
X122000000Y-105000000D03*
%TO.P,Q1,3,E*%
%TO.N,Net-(J10-Pin_1)*%
X123270000Y-106270000D03*
%TD*%
D10*
%TO.P,K1,1*%
%TO.N,Net-(M2-+)*%
X146900000Y-56917500D03*
D11*
%TO.P,K1,2*%
%TO.N,Net-(J9-Pin_2)*%
X141900000Y-56917500D03*
%TO.P,K1,4*%
%TO.N,Net-(D1-K)*%
X121900000Y-56917500D03*
%TO.P,K1,5*%
%TO.N,Net-(D10-A)*%
X121900000Y-64417500D03*
%TO.P,K1,7*%
%TO.N,Net-(J9-Pin_1)*%
X141900000Y-64417500D03*
%TO.P,K1,8*%
%TO.N,Net-(M2--)*%
X146900000Y-64417500D03*
%TD*%
D21*
%TO.P,J8,1,Pin_1*%
%TO.N,Net-(J8-Pin_1)*%
X157500000Y-91000000D03*
%TD*%
D23*
%TO.N,*%
X105500000Y-37000000D03*
X105500000Y-133000000D03*
X161500000Y-133000000D03*
X161500000Y-37000000D03*
D24*
%TO.N,Net-(D2-A)*%
X130726100Y-104347900D03*
%TO.N,Net-(J10-Pin_1)*%
X123983500Y-112192900D03*
%TD*%
D25*
%TO.N,Net-(D1-K)*%
X121400000Y-75417500D02*
X128770000Y-82787500D01*
X132915600Y-100400700D02*
X135092800Y-102577900D01*
X126185200Y-99334800D02*
X128770000Y-96750000D01*
X132915600Y-99384400D02*
X132915600Y-100400700D01*
X135092800Y-102577900D02*
X135092800Y-104607200D01*
D26*
X132915600Y-99384400D02*
X133300000Y-99000000D01*
D25*
X126185200Y-125182300D02*
X126185200Y-99334800D01*
X128770000Y-96750000D02*
X128770000Y-93500000D01*
X128770000Y-96750000D02*
X131050000Y-96750000D01*
X124409400Y-59426900D02*
X124409400Y-72408100D01*
X125500000Y-125867500D02*
X126185200Y-125182300D01*
D26*
X132868600Y-98568600D02*
X133300000Y-99000000D01*
D25*
X131050000Y-96750000D02*
X132868600Y-98568600D01*
X124409400Y-72408100D02*
X121400000Y-75417500D01*
X121900000Y-56917500D02*
X124409400Y-59426900D01*
X128770000Y-82787500D02*
X128770000Y-93500000D01*
D26*
X135092800Y-104607200D02*
X134700000Y-105000000D01*
D25*
%TO.N,Net-(D2-A)*%
X121400000Y-102277300D02*
X120149800Y-103527500D01*
D26*
X132868600Y-104568600D02*
X133300000Y-105000000D01*
D25*
X121400000Y-82917500D02*
X121400000Y-102277300D01*
D27*
X120149800Y-103527500D02*
X120149800Y-106000200D01*
X120419600Y-106270000D02*
X120730000Y-106270000D01*
D25*
X120149800Y-106000200D02*
X120419600Y-106270000D01*
X132647900Y-104347900D02*
X132868600Y-104568600D01*
X130726100Y-104347900D02*
X132647900Y-104347900D01*
%TO.N,Net-(D10-A)*%
X121900000Y-64417500D02*
X110000000Y-76317500D01*
X110000000Y-76317500D02*
X110000000Y-80740000D01*
X144880000Y-106500000D02*
X142200000Y-106500000D01*
X142200000Y-106500000D02*
X135131400Y-99431400D01*
D27*
X144880000Y-106500000D02*
X145460000Y-106500000D01*
D26*
X135131400Y-99431400D02*
X134700000Y-99000000D01*
D25*
%TO.N,Net-(J9-Pin_2)*%
X142972900Y-117326600D02*
X149879200Y-110420300D01*
X148055900Y-128346600D02*
X143790300Y-128346600D01*
X149879200Y-95709500D02*
X138873600Y-84703900D01*
X150535000Y-125867500D02*
X148055900Y-128346600D01*
X138873600Y-77943900D02*
X141400000Y-75417500D01*
X143790300Y-128346600D02*
X142972900Y-127529200D01*
X138873600Y-84703900D02*
X138873600Y-77943900D01*
X142972900Y-127529200D02*
X142972900Y-117326600D01*
X149879200Y-110420300D02*
X149879200Y-95709500D01*
%TO.N,Net-(J9-Pin_1)*%
X145455000Y-125867500D02*
X152080900Y-119241600D01*
X152080900Y-93598400D02*
X141400000Y-82917500D01*
X141900000Y-64417500D02*
X143884300Y-66401800D01*
X143884300Y-80433200D02*
X141400000Y-82917500D01*
X143884300Y-66401800D02*
X143884300Y-80433200D01*
X152080900Y-119241600D02*
X152080900Y-93598400D01*
D27*
%TO.N,Net-(J10-Pin_1)*%
X123270000Y-106850000D02*
X123270000Y-106270000D01*
D25*
X123270000Y-123017500D02*
X123270000Y-112192900D01*
X123270000Y-112192900D02*
X123983500Y-112192900D01*
X123270000Y-106850000D02*
X123270000Y-112192900D01*
X120420000Y-125867500D02*
X123270000Y-123017500D01*
%TO.N,Net-(M2-+)*%
X149388200Y-62655700D02*
X149388200Y-79929300D01*
X146900000Y-56917500D02*
X146900000Y-60167500D01*
X146900000Y-60167500D02*
X149388200Y-62655700D01*
X149388200Y-79929300D02*
X146400000Y-82917500D01*
%TO.N,Net-(M2--)*%
X136000000Y-44500000D02*
X144448300Y-52948300D01*
X146400000Y-75417500D02*
X146400000Y-72167500D01*
X146400000Y-72167500D02*
X146900000Y-71667500D01*
X146900000Y-71667500D02*
X146900000Y-64417500D01*
X144448300Y-52948300D02*
X144448300Y-61965800D01*
X144448300Y-61965800D02*
X146900000Y-64417500D01*
%TO.N,Net-(Q5-B)*%
X130870200Y-62365300D02*
X130870200Y-79934400D01*
D27*
X147310200Y-104648100D02*
X147310200Y-104649800D01*
D25*
X138873600Y-87817500D02*
X144105000Y-93048900D01*
X112543800Y-54456200D02*
X122961100Y-54456200D01*
X122961100Y-54456200D02*
X130870200Y-62365300D01*
X138753300Y-87817500D02*
X138873600Y-87817500D01*
X110000000Y-57000000D02*
X112543800Y-54456200D01*
D27*
X147310200Y-104649800D02*
X146730000Y-105230000D01*
D25*
X144105000Y-93048900D02*
X144105000Y-101442900D01*
X130870200Y-79934400D02*
X138753300Y-87817500D01*
X144105000Y-101442900D02*
X147310200Y-104648100D01*
%TD*%
M02*
